# xmcd
#
# Track frame offsets: 
#        150
#        15150
#        31547
#        48253
#        63059
#        80396
#        93844
#        109729
#        127298
#        143394
#        161728
#        178928
#        195514
#        214390
#        229689
#        244857
#        261607
#        274751
#        290968
#        308163
#
# Disc length: 4303 seconds
#
# Revision: 0
# Processed by: cddbd v1.5.2PL0 Copyright (c) Steve Scherf et al.
# Submitted via: ExactAudioCopy v0.99pb4
#
DISCID=1910cd14
DTITLE=แมงปอ ชลธิชา - รวมฮิต แมงปอ
DYEAR=2008
DGENRE=Country
TTITLE0=สาวลูกทุ่ง
TTITLE1=หนูอยาก'นอุ้ม
TTITLE2=นางสาวแนนซี่
TTITLE3=สาวใต้ใจดี
TTITLE4=จามทำไม
TTITLE5=ตามหาสมชาย
TTITLE6=สมชายเปลี่ยนไป
TTITLE7=รักเก้อเพราะก้อนอิฐ
TTITLE8=รอรักหนุ่ม  อบต.
TTITLE9=ปล่อยหนูไว้ดูเล่น
TTITLE10=หลอกกันทั้งปี
TTITLE11=กล้าๆหน่อย
TTITLE12=แม้นานก็คอย
TTITLE13=ขอบคุณความสบาย
TTITLE14=คู่หมั้นคู่หมาย
TTITLE15=ล้างสต๊อกใจ
TTITLE16=หลอกน้องจะฟ้องตำรวจ
TTITLE17=อยากกอดต้องกล้า
TTITLE18=อย่าเล่นของ
TTITLE19=ไม่ชัวร์อย่าโชว์
EXTD=
EXTT0=
EXTT1=
EXTT2=
EXTT3=
EXTT4=
EXTT5=
EXTT6=
EXTT7=
EXTT8=
EXTT9=
EXTT10=
EXTT11=
EXTT12=
EXTT13=
EXTT14=
EXTT15=
EXTT16=
EXTT17=
EXTT18=
EXTT19=
PLAYORDER=
